[   2s] CDP targets: 1
[   2s]   page: file:///C:/Users/runneradmin/.comfy-test-cache/desktop/ComfyUI/resources/desktop-ui/index.html#/not-supported | ComfyUI
[   2s] Main page: file:///C:/Users/runneradmin/.comfy-test-cache/desktop/ComfyUI/resources/desktop-ui/index.html#/not-supported | ComfyUI
[   2s] Buttons: ['Learn More', 'Report Issue', 'Continue']
[   3s]   wizard: COMFY_TEST_GPU=0 platform=win32 preferred=['CPU']
[   5s]   clicked [BTN|Continue]
[   8s]   url: file:///C:/Users/runneradmin/.comfy-test-cache/desktop/ComfyUI/resources/desktop-ui/index.html#/not-supported -> file:///C:/Users/runneradmin/.comfy-test-cache/desktop/ComfyUI/resources/desktop-ui/index.html#/install
[   9s]   clicked [TILE|CPU]
[  13s]   clicked [BTN|Next]
[  20s]   clicked [BTN|Next]
[  23s]   clicked [BTN|Install]
[  27s]   url: file:///C:/Users/runneradmin/.comfy-test-cache/desktop/ComfyUI/resources/desktop-ui/index.html#/install -> file:///C:/Users/runneradmin/.comfy-test-cache/desktop/ComfyUI/resources/desktop-ui/index.html#/server-start
[ 178s]   /system_stats up after 175s
[ 178s]   app: waiting for backend stability (continuous /system_stats up for 30s)
[ 178s]   app: /system_stats up; awaiting 30s of stability
[ 209s]   app: backend stable for 30s; proceeding
[ 209s]   capturing canvas load...
[ 218s]   post: waiting for Cloud upsell
[ 250s]   post: Cloud upsell not found, skipping
[ 250s]   post: pressed Escape (Cloud upsell fallback)
[ 252s]   post: waiting for Close Templates
[ 264s]   post: Close Templates not found, skipping
[ 264s]   post: pressed Escape (Close Templates fallback)
[ 266s]   post: waiting for Extensions
[ 267s]   post: clicked Extensions via [button[aria-label="Extensions"]:visible]
[ 269s]   ext: node meta = display='SAM3' publisher='pznodes' version='0.1.16'
[ 272s]   ext: searching "SAM3"
[ 275s]   ext: clicking SAM3 by pznodes tile
[ 279s]   ext: scrolling to + opening version selector
[ 282s]   ext: selected 0.1.16
[ 283s]   ext: clicking right-panel Install
[ 285s]   ext: clicked Install (last of 8 visible)
[ 293s]   ext: waiting for "Apply Changes" toast
[ 293s]   ext: clicked Apply Changes
[ 298s]   app: Apply Changes already triggered in-app restart, skipping pkill
[ 303s]   app: relaunching with CDP
[ 303s]   app: waiting for CDP
[ 305s]   app: CDP up after 1s
[ 305s]   app: reconnecting Playwright
[ 305s]   app: attached to http://127.0.0.1:8000/
[ 388s]   app: server ready after 21s
[ 388s]   app: waiting for main canvas (window.app.graph)
[ 388s]   app: canvas ready after 1s (http://127.0.0.1:8000/)
[ 393s]   app: forcing renderer reload to refresh node-pack manifest
[ 395s]   app: canvas re-ready after reload in 2s
[ 398s]   ext: closing Nodes Manager dialog
[ 398s]   ext: dismissing What's New popup
[ 399s]   ext: closed What's New popup
[ 401s]   ext: dismissing Node Pack Issues modal (if present)
[ 401s]   ext: closed Node Pack Issues modal
[ 403s]   ext: opening Templates sidebar
[ 404s]   ext: clicked Templates
[ 408s]   ext: locating "comfyui-sam3" section in Templates panel
[ 410s]   ext: clicked comfyui-sam3 section
[ 412s]   ext: fetching comfy-test.toml from https://raw.githubusercontent.com/PozzettiAndrea/ComfyUI-SAM3/main/comfy-test.toml
[ 412s]   ext: cpu spec = exclude ['video_point_prompt']
[ 412s]   ext: picking first matching comfyui-sam3 template
[ 412s]   ext: 5 visible cards
[ 414s]   ext: clicked template image_seg_point
[ 419s]   ext: installing WS execution listener
[ 419s]   ext: clicking Run
[ 420s]   ext: clicked Run
[ 420s]   ext: waiting for execution_success / execution_error
[ 503s]   ext: WS events=230 elapsed=82s
[ 503s]     ws: {'type': 'progress_state', 'ts': 1778451666210}
[ 503s]     ws: {'type': 'progress_state', 'ts': 1778451666212}
[ 503s]     ws: {'type': 'executing', 'ts': 1778451666212}
[ 503s]     ws: {'type': 'progress_state', 'ts': 1778451722374}
[ 503s]     ws: {'type': 'progress_state', 'ts': 1778451722387}
[ 503s]     ws: {'type': 'executing', 'ts': 1778451722387}
[ 503s]     ws: {'type': 'executed', 'ts': 1778451723838}
[ 503s]     ws: {'type': 'progress_state', 'ts': 1778451724092}
[ 503s]     ws: {'type': 'progress_state', 'ts': 1778451724094}
[ 503s]     ws: {'type': 'executing', 'ts': 1778451724095}
[ 503s]     ws: {'type': 'executed', 'ts': 1778451724666}
[ 503s]     ws: {'type': 'progress_state', 'ts': 1778451724763}
[ 503s]     ws: {'type': 'execution_success', 'ts': 1778451724766}
[ 503s]     ws: {'type': 'status', 'ts': 1778451724777}
[ 503s]     ws: {'type': 'executing', 'ts': 1778451724778}
[ 503s]   ext: execution_success after 82s
[ 508s]   ext: fetching comfy-test.toml from https://raw.githubusercontent.com/PozzettiAndrea/ComfyUI-SAM3/main/comfy-test.toml
[ 508s]   ext: cpu spec = exclude ['video_point_prompt']
[ 508s]   loop: workflows/ from $COMFY_TEST_WORKFLOWS -> ['image_seg_point', 'image_seg_text', 'scene_seg', 'scene_seg_interactive', 'video_point_prompt']
[ 508s]   loop: spec=exclude items=['video_point_prompt'] -> 4 workflow(s) ['image_seg_point', 'image_seg_text', 'scene_seg', 'scene_seg_interactive']
[ 508s]   loop: matching=4 first_ran='image_seg_point' remaining=3 -> ['image_seg_text', 'scene_seg', 'scene_seg_interactive']
[ 508s]   loop: full restart for workflow 2/4 (image_seg_text)
[ 508s]   loop: closing current browser
[ 508s]   loop: killing ComfyUI process
[ 513s]   loop: launching ComfyUI with --remote-debugging-port=0
[ 513s]   loop: waiting for DevToolsActivePort at C:\Users\runneradmin\AppData\Roaming\ComfyUI\DevToolsActivePort
[ 514s]   loop: DevToolsActivePort -> 60067 after 2s
[ 514s]   loop: reconnecting Playwright on port 60067
[ 515s]   loop: attached to file:///C:/Users/runneradmin/.comfy-test-cache/desktop/ComfyUI/resources/desktop-ui/index.html#desktop-start
[ 515s]   loop: server ready after 1s
[ 541s]   loop: canvas ready after 22s
[ 541s]   loop: forcing renderer reload
[ 543s]   loop: canvas ready after 2s
[ 546s]   ext: closing Nodes Manager dialog
[ 546s]   ext: dismissing What's New popup
[ 546s]   ext: What's New popup not present
[ 546s]   ext: dismissing Node Pack Issues modal (if present)
[ 546s]   ext: Node Pack Issues modal not present
[ 546s]   ext: opening Templates sidebar
[ 546s]   ext: clicked Templates
[ 551s]   ext: locating "comfyui-sam3" section in Templates panel
[ 552s]   ext: clicked comfyui-sam3 section
[ 555s]   ext: clicking template image_seg_text
[ 557s]   ext: clicked template image_seg_text
[ 562s]   ext: installing WS execution listener
[ 562s]   ext: clicking Run
[ 562s]   ext: clicked Run
[ 562s]   ext: waiting for execution_success / execution_error
[ 621s]   ext: WS events=23 elapsed=59s
[ 621s]     ws: {'type': 'executing', 'ts': 1778451784718}
[ 621s]     ws: {'type': 'progress_state', 'ts': 1778451787950}
[ 621s]     ws: {'type': 'progress_state', 'ts': 1778451787951}
[ 621s]     ws: {'type': 'executing', 'ts': 1778451787951}
[ 621s]     ws: {'type': 'progress_state', 'ts': 1778451843338}
[ 621s]     ws: {'type': 'progress_state', 'ts': 1778451843339}
[ 621s]     ws: {'type': 'executing', 'ts': 1778451843340}
[ 621s]     ws: {'type': 'executed', 'ts': 1778451843489}
[ 621s]     ws: {'type': 'progress_state', 'ts': 1778451843500}
[ 621s]     ws: {'type': 'progress_state', 'ts': 1778451843502}
[ 621s]     ws: {'type': 'executing', 'ts': 1778451843502}
[ 621s]     ws: {'type': 'executed', 'ts': 1778451843545}
[ 621s]     ws: {'type': 'progress_state', 'ts': 1778451843546}
[ 621s]     ws: {'type': 'execution_success', 'ts': 1778451843549}
[ 621s]     ws: {'type': 'status', 'ts': 1778451843550}
[ 621s]   ext: execution_success after 59s
[ 626s]   loop: full restart for workflow 3/4 (scene_seg)
[ 626s]   loop: closing current browser
[ 626s]   loop: killing ComfyUI process
[ 631s]   loop: launching ComfyUI with --remote-debugging-port=0
[ 631s]   loop: waiting for DevToolsActivePort at C:\Users\runneradmin\AppData\Roaming\ComfyUI\DevToolsActivePort
[ 632s]   loop: DevToolsActivePort -> 60314 after 2s
[ 632s]   loop: reconnecting Playwright on port 60314
[ 633s]   loop: attached to file:///C:/Users/runneradmin/.comfy-test-cache/desktop/ComfyUI/resources/desktop-ui/index.html#/desktop-start
[ 633s]   loop: server ready after 1s
[ 656s]   loop: canvas ready after 21s
[ 656s]   loop: forcing renderer reload
[ 659s]   loop: canvas ready after 3s
[ 662s]   ext: closing Nodes Manager dialog
[ 662s]   ext: dismissing What's New popup
[ 662s]   ext: What's New popup not present
[ 662s]   ext: dismissing Node Pack Issues modal (if present)
[ 662s]   ext: Node Pack Issues modal not present
[ 662s]   ext: opening Templates sidebar
[ 662s]   ext: clicked Templates
[ 667s]   ext: locating "comfyui-sam3" section in Templates panel
[ 668s]   ext: clicked comfyui-sam3 section
[ 670s]   ext: clicking template scene_seg
[ 672s]   ext: clicked template scene_seg
[ 678s]   ext: installing WS execution listener
[ 678s]   ext: clicking Run
[ 678s]   ext: clicked Run
[ 678s]   ext: waiting for execution_success / execution_error
[ 754s]   ext: WS events=55 elapsed=76s
[ 754s]     ws: {'type': 'executing', 'ts': 1778451975493}
[ 754s]     ws: {'type': 'progress_state', 'ts': 1778451975726}
[ 754s]     ws: {'type': 'progress_state', 'ts': 1778451975737}
[ 754s]     ws: {'type': 'executing', 'ts': 1778451975737}
[ 754s]     ws: {'type': 'progress_state', 'ts': 1778451975833}
[ 754s]     ws: {'type': 'progress_state', 'ts': 1778451975835}
[ 754s]     ws: {'type': 'executing', 'ts': 1778451975836}
[ 754s]     ws: {'type': 'executed', 'ts': 1778451976087}
[ 754s]     ws: {'type': 'progress_state', 'ts': 1778451976089}
[ 754s]     ws: {'type': 'progress_state', 'ts': 1778451976103}
[ 754s]     ws: {'type': 'executing', 'ts': 1778451976103}
[ 754s]     ws: {'type': 'progress_state', 'ts': 1778451976555}
[ 754s]     ws: {'type': 'execution_success', 'ts': 1778451976559}
[ 754s]     ws: {'type': 'status', 'ts': 1778451976570}
[ 754s]     ws: {'type': 'executing', 'ts': 1778451976570}
[ 754s]   ext: execution_success after 76s
[ 759s]   loop: full restart for workflow 4/4 (scene_seg_interactive)
[ 759s]   loop: closing current browser
[ 759s]   loop: killing ComfyUI process
[ 764s]   loop: launching ComfyUI with --remote-debugging-port=0
[ 764s]   loop: waiting for DevToolsActivePort at C:\Users\runneradmin\AppData\Roaming\ComfyUI\DevToolsActivePort
[ 766s]   loop: DevToolsActivePort -> 60568 after 2s
[ 766s]   loop: reconnecting Playwright on port 60568
[ 766s]   loop: attached to file:///C:/Users/runneradmin/.comfy-test-cache/desktop/ComfyUI/resources/desktop-ui/index.html#/desktop-start
[ 766s]   loop: server ready after 1s
[ 785s]   loop: canvas ready after 17s
[ 785s]   loop: forcing renderer reload
[ 788s]   loop: canvas ready after 3s
[ 792s]   ext: closing Nodes Manager dialog
[ 792s]   ext: dismissing What's New popup
[ 792s]   ext: What's New popup not present
[ 792s]   ext: dismissing Node Pack Issues modal (if present)
[ 792s]   ext: Node Pack Issues modal not present
[ 792s]   ext: opening Templates sidebar
[ 792s]   ext: clicked Templates
[ 797s]   ext: locating "comfyui-sam3" section in Templates panel
[ 798s]   ext: clicked comfyui-sam3 section
[ 800s]   ext: clicking template scene_seg_interactive
[ 802s]   ext: clicked template scene_seg_interactive
[ 807s]   ext: installing WS execution listener
[ 807s]   ext: clicking Run
[ 808s]   ext: clicked Run
[ 808s]   ext: waiting for execution_success / execution_error
[ 867s]   ext: WS events=23 elapsed=59s
[ 867s]     ws: {'type': 'executing', 'ts': 1778452030899}
[ 867s]     ws: {'type': 'progress_state', 'ts': 1778452034420}
[ 867s]     ws: {'type': 'progress_state', 'ts': 1778452034423}
[ 867s]     ws: {'type': 'executing', 'ts': 1778452034424}
[ 867s]     ws: {'type': 'progress_state', 'ts': 1778452084530}
[ 867s]     ws: {'type': 'progress', 'ts': 1778452084530}
[ 867s]     ws: {'type': 'executed', 'ts': 1778452088234}
[ 867s]     ws: {'type': 'progress_state', 'ts': 1778452088819}
[ 867s]     ws: {'type': 'progress_state', 'ts': 1778452088821}
[ 867s]     ws: {'type': 'executing', 'ts': 1778452088822}
[ 867s]     ws: {'type': 'executed', 'ts': 1778452088849}
[ 867s]     ws: {'type': 'progress_state', 'ts': 1778452088850}
[ 867s]     ws: {'type': 'execution_success', 'ts': 1778452088854}
[ 867s]     ws: {'type': 'status', 'ts': 1778452088855}
[ 867s]     ws: {'type': 'executing', 'ts': 1778452088855}
[ 867s]   ext: execution_success after 59s
[ 873s] Captured 1120 frames
[ 873s] Wrote D:\a\comfy-gpu-ci\comfy-gpu-ci\comfy-test-logs\SAM3-2212\dev\windows-desktop\results.json (4 workflow(s), sha=6ce3d8065ccc)
ffmpeg version 7.1-essentials_build-www.gyan.dev Copyright (c) 2000-2024 the FFmpeg developers
  built with gcc 14.2.0 (Rev1, Built by MSYS2 project)
  configuration: --enable-gpl --enable-version3 --enable-static --disable-w32threads --disable-autodetect --enable-fontconfig --enable-iconv --enable-gnutls --enable-libxml2 --enable-gmp --enable-bzlib --enable-lzma --enable-zlib --enable-libsrt --enable-libssh --enable-libzmq --enable-avisynth --enable-sdl2 --enable-libwebp --enable-libx264 --enable-libx265 --enable-libxvid --enable-libaom --enable-libopenjpeg --enable-libvpx --enable-mediafoundation --enable-libass --enable-libfreetype --enable-libfribidi --enable-libharfbuzz --enable-libvidstab --enable-libvmaf --enable-libzimg --enable-amf --enable-cuda-llvm --enable-cuvid --enable-dxva2 --enable-d3d11va --enable-d3d12va --enable-ffnvcodec --enable-libvpl --enable-nvdec --enable-nvenc --enable-vaapi --enable-libgme --enable-libopenmpt --enable-libopencore-amrwb --enable-libmp3lame --enable-libtheora --enable-libvo-amrwbenc --enable-libgsm --enable-libopencore-amrnb --enable-libopus --enable-libspeex --enable-libvorbis --enable-librubberband
  libavutil      59. 39.100 / 59. 39.100
  libavcodec     61. 19.100 / 61. 19.100
  libavformat    61.  7.100 / 61.  7.100
  libavdevice    61.  3.100 / 61.  3.100
  libavfilter    10.  4.100 / 10.  4.100
  libswscale      8.  3.100 /  8.  3.100
  libswresample   5.  3.100 /  5.  3.100
  libpostproc    58.  3.100 / 58.  3.100
Input #0, image2, from 'D:\a\comfy-gpu-ci\comfy-gpu-ci\comfy-test-logs\SAM3-2212\dev\windows-desktop\debug\electron_inspect\frames\frame_%06d.png':
  Duration: 00:03:44.00, start: 0.000000, bitrate: N/A
  Stream #0:0: Video: png, rgb24(pc, gbr/bt709/iec61966-2-1), 1008x681, 5 fps, 5 tbr, 5 tbn
Stream mapping:
  Stream #0:0 -> #0:0 (png (native) -> h264 (libx264))
Press [q] to stop, [?] for help
[libx264 @ 000002958585ddc0] using cpu capabilities: MMX2 SSE2Fast SSSE3 SSE4.2 AVX FMA3 BMI2 AVX2 AVX512
[libx264 @ 000002958585ddc0] profile High, level 3.1, 4:2:0, 8-bit
[libx264 @ 000002958585ddc0] 264 - core 164 r3192 c24e06c - H.264/MPEG-4 AVC codec - Copyleft 2003-2024 - http://www.videolan.org/x264.html - options: cabac=1 ref=3 deblock=1:0:0 analyse=0x3:0x113 me=hex subme=7 psy=1 psy_rd=1.00:0.00 mixed_ref=1 me_range=16 chroma_me=1 trellis=1 8x8dct=1 cqm=0 deadzone=21,11 fast_pskip=1 chroma_qp_offset=-2 threads=6 lookahead_threads=1 sliced_threads=0 nr=0 decimate=1 interlaced=0 bluray_compat=0 constrained_intra=0 bframes=3 b_pyramid=2 b_adapt=1 b_bias=0 direct=1 weightb=1 open_gop=0 weightp=2 keyint=250 keyint_min=5 scenecut=40 intra_refresh=0 rc_lookahead=40 rc=crf mbtree=1 crf=23.0 qcomp=0.60 qpmin=0 qpmax=69 qpstep=4 ip_ratio=1.40 aq=1:1.00
Output #0, mp4, to 'D:\a\comfy-gpu-ci\comfy-gpu-ci\comfy-test-logs\SAM3-2212\dev\windows-desktop\debug\electron_inspect\driver.mp4':
  Metadata:
    encoder         : Lavf61.7.100
  Stream #0:0: Video: h264 (avc1 / 0x31637661), yuv420p(tv, unknown/bt709/iec61966-2-1, progressive), 1008x682, q=2-31, 5 fps, 10240 tbn
      Metadata:
        encoder         : Lavc61.19.100 libx264
      Side data:
        cpb: bitrate max/min/avg: 0/0/0 buffer size: 0 vbv_delay: N/A
[vf#0:0 @ 0000029585805fc0] Reconfiguring filter graph because video parameters changed to rgba(pc, gbr), 1008x681
frame=   40 fps=0.0 q=23.0 size=       0KiB time=00:00:07.60 bitrate=   0.1kbits/s speed=14.9x    
[vf#0:0 @ 0000029585805fc0] Reconfiguring filter graph because video parameters changed to rgb24(pc, gbr), 1008x681
frame=  124 fps=121 q=23.0 size=     256KiB time=00:00:24.40 bitrate=  86.0kbits/s speed=23.7x    
frame=  202 fps=130 q=23.0 size=     512KiB time=00:00:40.00 bitrate= 104.9kbits/s speed=25.7x    
[vf#0:0 @ 0000029585805fc0] Reconfiguring filter graph because video parameters changed to rgba(pc, gbr), 1008x681
frame=  282 fps=136 q=23.0 size=     512KiB time=00:00:56.00 bitrate=  74.9kbits/s speed=  27x    
[vf#0:0 @ 0000029585805fc0] Reconfiguring filter graph because video parameters changed to rgb24(pc, gbr), 1008x681
frame=  343 fps=132 q=20.0 size=    1024KiB time=00:01:08.20 bitrate= 123.0kbits/s speed=26.3x    
frame=  435 fps=139 q=23.0 size=    1024KiB time=00:01:26.60 bitrate=  96.9kbits/s speed=27.7x    
[vf#0:0 @ 0000029585805fc0] Reconfiguring filter graph because video parameters changed to rgba(pc, gbr), 1008x681
frame=  518 fps=142 q=23.0 size=    1280KiB time=00:01:43.20 bitrate= 101.6kbits/s speed=28.2x    
[vf#0:0 @ 0000029585805fc0] Reconfiguring filter graph because video parameters changed to rgb24(pc, gbr), 1008x681
frame=  586 fps=140 q=23.0 size=    1792KiB time=00:01:56.80 bitrate= 125.7kbits/s speed=  28x    
frame=  682 fps=146 q=23.0 size=    1792KiB time=00:02:16.00 bitrate= 107.9kbits/s speed=  29x    
[vf#0:0 @ 0000029585805fc0] Reconfiguring filter graph because video parameters changed to rgba(pc, gbr), 1008x681
[vf#0:0 @ 0000029585805fc0] Reconfiguring filter graph because video parameters changed to rgb24(pc, gbr), 1008x681
frame=  751 fps=145 q=23.0 size=    2048KiB time=00:02:29.80 bitrate= 112.0kbits/s speed=28.8x    
frame=  841 fps=147 q=23.0 size=    2304KiB time=00:02:47.80 bitrate= 112.5kbits/s speed=29.4x    
[vf#0:0 @ 0000029585805fc0] Reconfiguring filter graph because video parameters changed to rgba(pc, gbr), 1008x681
[vf#0:0 @ 0000029585805fc0] Reconfiguring filter graph because video parameters changed to rgb24(pc, gbr), 1008x681
frame=  936 fps=150 q=23.0 size=    2304KiB time=00:03:06.80 bitrate= 101.0kbits/s speed=29.9x    
frame= 1003 fps=149 q=23.0 size=    2816KiB time=00:03:20.20 bitrate= 115.2kbits/s speed=29.7x    
[out#0/mp4 @ 00000295858cee80] video:2937KiB audio:0KiB subtitle:0KiB other streams:0KiB global headers:0KiB muxing overhead: 0.468957%
frame= 1120 fps=156 q=-1.0 Lsize=    2951KiB time=00:03:43.60 bitrate= 108.1kbits/s speed=31.1x    
[libx264 @ 000002958585ddc0] frame I:23    Avg QP: 7.78  size: 41301
[libx264 @ 000002958585ddc0] frame P:321   Avg QP:15.42  size:  4210
[libx264 @ 000002958585ddc0] frame B:776   Avg QP:22.26  size:   909
[libx264 @ 000002958585ddc0] consecutive B-frames:  5.6%  5.0%  2.9% 86.4%
[libx264 @ 000002958585ddc0] mb I  I16..4: 58.1% 14.4% 27.5%
[libx264 @ 000002958585ddc0] mb P  I16..4:  2.7%  2.6%  2.4%  P16..4:  2.0%  0.7%  0.5%  0.0%  0.0%    skip:89.1%
[libx264 @ 000002958585ddc0] mb B  I16..4:  0.2%  0.3%  0.2%  B16..8:  4.1%  0.6%  0.2%  direct: 0.2%  skip:94.2%  L0:57.6% L1:38.9% BI: 3.5%
[libx264 @ 000002958585ddc0] 8x8 transform intra:26.5% inter:52.0%
[libx264 @ 000002958585ddc0] coded y,uvDC,uvAC intra: 36.6% 19.6% 15.9% inter: 1.0% 0.9% 0.2%
[libx264 @ 000002958585ddc0] i16 v,h,dc,p: 67% 28%  2%  2%
[libx264 @ 000002958585ddc0] i8 v,h,dc,ddl,ddr,vr,hd,vl,hu: 34% 20% 32%  2%  2%  2%  3%  2%  4%
[libx264 @ 000002958585ddc0] i4 v,h,dc,ddl,ddr,vr,hd,vl,hu: 36% 32% 14%  2%  3%  3%  4%  3%  4%
[libx264 @ 000002958585ddc0] i8c dc,h,v,p: 79% 12%  6%  3%
[libx264 @ 000002958585ddc0] Weighted P-Frames: Y:1.9% UV:1.2%
[libx264 @ 000002958585ddc0] ref P L0: 65.5%  5.0% 14.9%  9.4%  5.2%
[libx264 @ 000002958585ddc0] ref B L0: 64.5% 33.6%  1.9%
[libx264 @ 000002958585ddc0] ref B L1: 96.5%  3.5%
[libx264 @ 000002958585ddc0] kb/s:107.38
[ 880s] Wrote D:\a\comfy-gpu-ci\comfy-gpu-ci\comfy-test-logs\SAM3-2212\dev\windows-desktop\debug\electron_inspect\driver.mp4
ffmpeg version 7.1-essentials_build-www.gyan.dev Copyright (c) 2000-2024 the FFmpeg developers
  built with gcc 14.2.0 (Rev1, Built by MSYS2 project)
  configuration: --enable-gpl --enable-version3 --enable-static --disable-w32threads --disable-autodetect --enable-fontconfig --enable-iconv --enable-gnutls --enable-libxml2 --enable-gmp --enable-bzlib --enable-lzma --enable-zlib --enable-libsrt --enable-libssh --enable-libzmq --enable-avisynth --enable-sdl2 --enable-libwebp --enable-libx264 --enable-libx265 --enable-libxvid --enable-libaom --enable-libopenjpeg --enable-libvpx --enable-mediafoundation --enable-libass --enable-libfreetype --enable-libfribidi --enable-libharfbuzz --enable-libvidstab --enable-libvmaf --enable-libzimg --enable-amf --enable-cuda-llvm --enable-cuvid --enable-dxva2 --enable-d3d11va --enable-d3d12va --enable-ffnvcodec --enable-libvpl --enable-nvdec --enable-nvenc --enable-vaapi --enable-libgme --enable-libopenmpt --enable-libopencore-amrwb --enable-libmp3lame --enable-libtheora --enable-libvo-amrwbenc --enable-libgsm --enable-libopencore-amrnb --enable-libopus --enable-libspeex --enable-libvorbis --enable-librubberband
  libavutil      59. 39.100 / 59. 39.100
  libavcodec     61. 19.100 / 61. 19.100
  libavformat    61.  7.100 / 61.  7.100
  libavdevice    61.  3.100 / 61.  3.100
  libavfilter    10.  4.100 / 10.  4.100
  libswscale      8.  3.100 /  8.  3.100
  libswresample   5.  3.100 /  5.  3.100
  libpostproc    58.  3.100 / 58.  3.100
Input #0, image2, from 'D:\a\comfy-gpu-ci\comfy-gpu-ci\comfy-test-logs\SAM3-2212\dev\windows-desktop\debug\electron_inspect\frames\frame_%06d.png':
  Duration: 00:02:30.80, start: 0.000000, bitrate: N/A
  Stream #0:0: Video: png, rgb24(pc, gbr/bt709/iec61966-2-1), 1008x681, 5 fps, 5 tbr, 5 tbn
Stream mapping:
  Stream #0:0 -> #0:0 (png (native) -> h264 (libx264))
Press [q] to stop, [?] for help
[libx264 @ 00000241c6e34540] using cpu capabilities: MMX2 SSE2Fast SSSE3 SSE4.2 AVX FMA3 BMI2 AVX2 AVX512
[libx264 @ 00000241c6e34540] profile High, level 3.1, 4:2:0, 8-bit
[libx264 @ 00000241c6e34540] 264 - core 164 r3192 c24e06c - H.264/MPEG-4 AVC codec - Copyleft 2003-2024 - http://www.videolan.org/x264.html - options: cabac=1 ref=3 deblock=1:0:0 analyse=0x3:0x113 me=hex subme=7 psy=1 psy_rd=1.00:0.00 mixed_ref=1 me_range=16 chroma_me=1 trellis=1 8x8dct=1 cqm=0 deadzone=21,11 fast_pskip=1 chroma_qp_offset=-2 threads=6 lookahead_threads=1 sliced_threads=0 nr=0 decimate=1 interlaced=0 bluray_compat=0 constrained_intra=0 bframes=3 b_pyramid=2 b_adapt=1 b_bias=0 direct=1 weightb=1 open_gop=0 weightp=2 keyint=250 keyint_min=5 scenecut=40 intra_refresh=0 rc_lookahead=40 rc=crf mbtree=1 crf=23.0 qcomp=0.60 qpmin=0 qpmax=69 qpstep=4 ip_ratio=1.40 aq=1:1.00
Output #0, mp4, to 'D:\a\comfy-gpu-ci\comfy-gpu-ci\comfy-test-logs\SAM3-2212\dev\windows-desktop\videos\image_seg_point\driver.mp4':
  Metadata:
    encoder         : Lavf61.7.100
  Stream #0:0: Video: h264 (avc1 / 0x31637661), yuv420p(tv, unknown/bt709/iec61966-2-1, progressive), 1008x682, q=2-31, 5 fps, 10240 tbn
      Metadata:
        encoder         : Lavc61.19.100 libx264
      Side data:
        cpb: bitrate max/min/avg: 0/0/0 buffer size: 0 vbv_delay: N/A
frame=   45 fps=0.0 q=23.0 size=       0KiB time=00:00:08.60 bitrate=   0.0kbits/s speed=16.9x    
[out#0/mp4 @ 00000241c733b700] video:114KiB audio:0KiB subtitle:0KiB other streams:0KiB global headers:0KiB muxing overhead: 2.303662%
frame=  153 fps=0.0 q=-1.0 Lsize=     117KiB time=00:00:30.20 bitrate=  31.7kbits/s speed=31.5x    
[libx264 @ 00000241c6e34540] frame I:1     Avg QP:11.04  size: 48052
[libx264 @ 00000241c6e34540] frame P:39    Avg QP:14.16  size:  1018
[libx264 @ 00000241c6e34540] frame B:113   Avg QP:22.97  size:   251
[libx264 @ 00000241c6e34540] consecutive B-frames:  1.3%  0.0%  2.0% 96.7%
[libx264 @ 00000241c6e34540] mb I  I16..4: 46.0% 28.6% 25.5%
[libx264 @ 00000241c6e34540] mb P  I16..4:  0.4%  0.1%  0.3%  P16..4:  1.0%  0.1%  0.1%  0.0%  0.0%    skip:98.1%
[libx264 @ 00000241c6e34540] mb B  I16..4:  0.0%  0.0%  0.0%  B16..8:  6.0%  0.2%  0.0%  direct: 0.0%  skip:93.7%  L0:53.2% L1:46.5% BI: 0.3%
[libx264 @ 00000241c6e34540] 8x8 transform intra:26.2% inter:49.2%
[libx264 @ 00000241c6e34540] coded y,uvDC,uvAC intra: 39.9% 17.9% 14.9% inter: 0.2% 0.1% 0.0%
[libx264 @ 00000241c6e34540] i16 v,h,dc,p: 53% 47%  0%  0%
[libx264 @ 00000241c6e34540] i8 v,h,dc,ddl,ddr,vr,hd,vl,hu: 32% 18% 50%  0%  0%  0%  0%  0%  0%
[libx264 @ 00000241c6e34540] i4 v,h,dc,ddl,ddr,vr,hd,vl,hu: 35% 35% 11%  2%  3%  3%  4%  3%  4%
[libx264 @ 00000241c6e34540] i8c dc,h,v,p: 68% 23%  8%  1%
[libx264 @ 00000241c6e34540] Weighted P-Frames: Y:0.0% UV:0.0%
[libx264 @ 00000241c6e34540] ref P L0: 76.5%  0.9% 17.3%  5.3%
[libx264 @ 00000241c6e34540] ref B L0: 48.6% 48.8%  2.6%
[libx264 @ 00000241c6e34540] ref B L1: 98.9%  1.1%
[libx264 @ 00000241c6e34540] kb/s:30.36
[ 881s]   videos/image_seg_point/driver.mp4 placed (frames 367..519)
[ 881s]   screenshots/image_seg_point_executed.png placed
ffmpeg version 7.1-essentials_build-www.gyan.dev Copyright (c) 2000-2024 the FFmpeg developers
  built with gcc 14.2.0 (Rev1, Built by MSYS2 project)
  configuration: --enable-gpl --enable-version3 --enable-static --disable-w32threads --disable-autodetect --enable-fontconfig --enable-iconv --enable-gnutls --enable-libxml2 --enable-gmp --enable-bzlib --enable-lzma --enable-zlib --enable-libsrt --enable-libssh --enable-libzmq --enable-avisynth --enable-sdl2 --enable-libwebp --enable-libx264 --enable-libx265 --enable-libxvid --enable-libaom --enable-libopenjpeg --enable-libvpx --enable-mediafoundation --enable-libass --enable-libfreetype --enable-libfribidi --enable-libharfbuzz --enable-libvidstab --enable-libvmaf --enable-libzimg --enable-amf --enable-cuda-llvm --enable-cuvid --enable-dxva2 --enable-d3d11va --enable-d3d12va --enable-ffnvcodec --enable-libvpl --enable-nvdec --enable-nvenc --enable-vaapi --enable-libgme --enable-libopenmpt --enable-libopencore-amrwb --enable-libmp3lame --enable-libtheora --enable-libvo-amrwbenc --enable-libgsm --enable-libopencore-amrnb --enable-libopus --enable-libspeex --enable-libvorbis --enable-librubberband
  libavutil      59. 39.100 / 59. 39.100
  libavcodec     61. 19.100 / 61. 19.100
  libavformat    61.  7.100 / 61.  7.100
  libavdevice    61.  3.100 / 61.  3.100
  libavfilter    10.  4.100 / 10.  4.100
  libswscale      8.  3.100 /  8.  3.100
  libswresample   5.  3.100 /  5.  3.100
  libpostproc    58.  3.100 / 58.  3.100
Input #0, image2, from 'D:\a\comfy-gpu-ci\comfy-gpu-ci\comfy-test-logs\SAM3-2212\dev\windows-desktop\debug\electron_inspect\frames\frame_%06d.png':
  Duration: 00:01:49.20, start: 0.000000, bitrate: N/A
  Stream #0:0: Video: png, rgba(pc, gbr/bt709/iec61966-2-1), 1008x681, 5 fps, 5 tbr, 5 tbn
Stream mapping:
  Stream #0:0 -> #0:0 (png (native) -> h264 (libx264))
Press [q] to stop, [?] for help
[libx264 @ 000001cd83b7a280] using cpu capabilities: MMX2 SSE2Fast SSSE3 SSE4.2 AVX FMA3 BMI2 AVX2 AVX512
[libx264 @ 000001cd83b7a280] profile High, level 3.1, 4:2:0, 8-bit
[libx264 @ 000001cd83b7a280] 264 - core 164 r3192 c24e06c - H.264/MPEG-4 AVC codec - Copyleft 2003-2024 - http://www.videolan.org/x264.html - options: cabac=1 ref=3 deblock=1:0:0 analyse=0x3:0x113 me=hex subme=7 psy=1 psy_rd=1.00:0.00 mixed_ref=1 me_range=16 chroma_me=1 trellis=1 8x8dct=1 cqm=0 deadzone=21,11 fast_pskip=1 chroma_qp_offset=-2 threads=6 lookahead_threads=1 sliced_threads=0 nr=0 decimate=1 interlaced=0 bluray_compat=0 constrained_intra=0 bframes=3 b_pyramid=2 b_adapt=1 b_bias=0 direct=1 weightb=1 open_gop=0 weightp=2 keyint=250 keyint_min=5 scenecut=40 intra_refresh=0 rc_lookahead=40 rc=crf mbtree=1 crf=23.0 qcomp=0.60 qpmin=0 qpmax=69 qpstep=4 ip_ratio=1.40 aq=1:1.00
Output #0, mp4, to 'D:\a\comfy-gpu-ci\comfy-gpu-ci\comfy-test-logs\SAM3-2212\dev\windows-desktop\videos\image_seg_text\driver.mp4':
  Metadata:
    encoder         : Lavf61.7.100
  Stream #0:0: Video: h264 (avc1 / 0x31637661), yuv420p(tv, unknown/bt709/iec61966-2-1, progressive), 1008x682, q=2-31, 5 fps, 10240 tbn
      Metadata:
        encoder         : Lavc61.19.100 libx264
      Side data:
        cpb: bitrate max/min/avg: 0/0/0 buffer size: 0 vbv_delay: N/A
[vf#0:0 @ 000001cd83b7ac80] Reconfiguring filter graph because video parameters changed to rgb24(pc, gbr), 1008x681
frame=   52 fps=0.0 q=23.0 size=       0KiB time=00:00:10.00 bitrate=   0.0kbits/s speed=19.4x    
[out#0/mp4 @ 000001cd83ac5940] video:129KiB audio:0KiB subtitle:0KiB other streams:0KiB global headers:0KiB muxing overhead: 1.943879%
frame=  142 fps=0.0 q=-1.0 Lsize=     131KiB time=00:00:28.00 bitrate=  38.3kbits/s speed=34.2x    
[libx264 @ 000001cd83b7a280] frame I:2     Avg QP:11.78  size: 45575
[libx264 @ 000001cd83b7a280] frame P:36    Avg QP:13.90  size:   902
[libx264 @ 000001cd83b7a280] frame B:104   Avg QP:23.79  size:    70
[libx264 @ 000001cd83b7a280] consecutive B-frames:  2.1%  0.0%  2.1% 95.8%
[libx264 @ 000001cd83b7a280] mb I  I16..4: 45.3% 25.6% 29.1%
[libx264 @ 000001cd83b7a280] mb P  I16..4:  0.3%  0.1%  0.4%  P16..4:  0.7%  0.1%  0.1%  0.0%  0.0%    skip:98.3%
[libx264 @ 000001cd83b7a280] mb B  I16..4:  0.0%  0.0%  0.0%  B16..8:  0.8%  0.0%  0.0%  direct: 0.0%  skip:99.1%  L0:40.3% L1:59.2% BI: 0.5%
[libx264 @ 000001cd83b7a280] 8x8 transform intra:24.5% inter:76.7%
[libx264 @ 000001cd83b7a280] coded y,uvDC,uvAC intra: 42.8% 22.4% 18.6% inter: 0.1% 0.1% 0.0%
[libx264 @ 000001cd83b7a280] i16 v,h,dc,p: 51% 41%  0%  8%
[libx264 @ 000001cd83b7a280] i8 v,h,dc,ddl,ddr,vr,hd,vl,hu: 50% 15% 29%  0%  2%  1%  1%  0%  1%
[libx264 @ 000001cd83b7a280] i4 v,h,dc,ddl,ddr,vr,hd,vl,hu: 41% 34% 11%  2%  2%  2%  3%  2%  3%
[libx264 @ 000001cd83b7a280] i8c dc,h,v,p: 69% 16%  9%  6%
[libx264 @ 000001cd83b7a280] Weighted P-Frames: Y:0.0% UV:0.0%
[libx264 @ 000001cd83b7a280] ref P L0: 89.1%  2.2%  6.0%  2.7%
[libx264 @ 000001cd83b7a280] ref B L0: 78.5% 20.6%  1.0%
[libx264 @ 000001cd83b7a280] ref B L1: 90.9%  9.1%
[libx264 @ 000001cd83b7a280] kb/s:36.89
[ 882s]   videos/image_seg_text/driver.mp4 placed (frames 575..716)
[ 882s]   screenshots/image_seg_text_executed.png placed
ffmpeg version 7.1-essentials_build-www.gyan.dev Copyright (c) 2000-2024 the FFmpeg developers
  built with gcc 14.2.0 (Rev1, Built by MSYS2 project)
  configuration: --enable-gpl --enable-version3 --enable-static --disable-w32threads --disable-autodetect --enable-fontconfig --enable-iconv --enable-gnutls --enable-libxml2 --enable-gmp --enable-bzlib --enable-lzma --enable-zlib --enable-libsrt --enable-libssh --enable-libzmq --enable-avisynth --enable-sdl2 --enable-libwebp --enable-libx264 --enable-libx265 --enable-libxvid --enable-libaom --enable-libopenjpeg --enable-libvpx --enable-mediafoundation --enable-libass --enable-libfreetype --enable-libfribidi --enable-libharfbuzz --enable-libvidstab --enable-libvmaf --enable-libzimg --enable-amf --enable-cuda-llvm --enable-cuvid --enable-dxva2 --enable-d3d11va --enable-d3d12va --enable-ffnvcodec --enable-libvpl --enable-nvdec --enable-nvenc --enable-vaapi --enable-libgme --enable-libopenmpt --enable-libopencore-amrwb --enable-libmp3lame --enable-libtheora --enable-libvo-amrwbenc --enable-libgsm --enable-libopencore-amrnb --enable-libopus --enable-libspeex --enable-libvorbis --enable-librubberband
  libavutil      59. 39.100 / 59. 39.100
  libavcodec     61. 19.100 / 61. 19.100
  libavformat    61.  7.100 / 61.  7.100
  libavdevice    61.  3.100 / 61.  3.100
  libavfilter    10.  4.100 / 10.  4.100
  libswscale      8.  3.100 /  8.  3.100
  libswresample   5.  3.100 /  5.  3.100
  libpostproc    58.  3.100 / 58.  3.100
Input #0, image2, from 'D:\a\comfy-gpu-ci\comfy-gpu-ci\comfy-test-logs\SAM3-2212\dev\windows-desktop\debug\electron_inspect\frames\frame_%06d.png':
  Duration: 00:01:09.80, start: 0.000000, bitrate: N/A
  Stream #0:0: Video: png, rgb24(pc, gbr/bt709/iec61966-2-1), 1008x681, 5 fps, 5 tbr, 5 tbn
Stream mapping:
  Stream #0:0 -> #0:0 (png (native) -> h264 (libx264))
Press [q] to stop, [?] for help
[libx264 @ 00000238e5a55a80] using cpu capabilities: MMX2 SSE2Fast SSSE3 SSE4.2 AVX FMA3 BMI2 AVX2 AVX512
[libx264 @ 00000238e5a55a80] profile High, level 3.1, 4:2:0, 8-bit
[libx264 @ 00000238e5a55a80] 264 - core 164 r3192 c24e06c - H.264/MPEG-4 AVC codec - Copyleft 2003-2024 - http://www.videolan.org/x264.html - options: cabac=1 ref=3 deblock=1:0:0 analyse=0x3:0x113 me=hex subme=7 psy=1 psy_rd=1.00:0.00 mixed_ref=1 me_range=16 chroma_me=1 trellis=1 8x8dct=1 cqm=0 deadzone=21,11 fast_pskip=1 chroma_qp_offset=-2 threads=6 lookahead_threads=1 sliced_threads=0 nr=0 decimate=1 interlaced=0 bluray_compat=0 constrained_intra=0 bframes=3 b_pyramid=2 b_adapt=1 b_bias=0 direct=1 weightb=1 open_gop=0 weightp=2 keyint=250 keyint_min=5 scenecut=40 intra_refresh=0 rc_lookahead=40 rc=crf mbtree=1 crf=23.0 qcomp=0.60 qpmin=0 qpmax=69 qpstep=4 ip_ratio=1.40 aq=1:1.00
Output #0, mp4, to 'D:\a\comfy-gpu-ci\comfy-gpu-ci\comfy-test-logs\SAM3-2212\dev\windows-desktop\videos\scene_seg\driver.mp4':
  Metadata:
    encoder         : Lavf61.7.100
  Stream #0:0: Video: h264 (avc1 / 0x31637661), yuv420p(tv, unknown/bt709/iec61966-2-1, progressive), 1008x682, q=2-31, 5 fps, 10240 tbn
      Metadata:
        encoder         : Lavc61.19.100 libx264
      Side data:
        cpb: bitrate max/min/avg: 0/0/0 buffer size: 0 vbv_delay: N/A
frame=   56 fps=0.0 q=23.0 size=       0KiB time=00:00:10.80 bitrate=   0.0kbits/s speed=20.8x    
[out#0/mp4 @ 00000238e5a5bb80] video:135KiB audio:0KiB subtitle:0KiB other streams:0KiB global headers:0KiB muxing overhead: 2.001159%
frame=  159 fps=0.0 q=-1.0 Lsize=     138KiB time=00:00:31.40 bitrate=  35.9kbits/s speed=37.6x    
[libx264 @ 00000238e5a55a80] frame I:2     Avg QP:10.95  size: 37283
[libx264 @ 00000238e5a55a80] frame P:41    Avg QP:13.92  size:  1247
[libx264 @ 00000238e5a55a80] frame B:116   Avg QP:23.77  size:   101
[libx264 @ 00000238e5a55a80] consecutive B-frames:  2.5%  0.0%  1.9% 95.6%
[libx264 @ 00000238e5a55a80] mb I  I16..4: 53.3% 23.1% 23.6%
[libx264 @ 00000238e5a55a80] mb P  I16..4:  0.5%  0.1%  0.5%  P16..4:  0.8%  0.1%  0.0%  0.0%  0.0%    skip:98.0%
[libx264 @ 00000238e5a55a80] mb B  I16..4:  0.1%  0.1%  0.0%  B16..8:  0.8%  0.0%  0.0%  direct: 0.0%  skip:99.0%  L0:43.0% L1:56.3% BI: 0.7%
[libx264 @ 00000238e5a55a80] 8x8 transform intra:23.2% inter:53.4%
[libx264 @ 00000238e5a55a80] coded y,uvDC,uvAC intra: 19.4% 22.4% 18.7% inter: 0.1% 0.2% 0.1%
[libx264 @ 00000238e5a55a80] i16 v,h,dc,p: 61% 34%  0%  5%
[libx264 @ 00000238e5a55a80] i8 v,h,dc,ddl,ddr,vr,hd,vl,hu: 50% 13% 33%  0%  2%  1%  1%  0%  1%
[libx264 @ 00000238e5a55a80] i4 v,h,dc,ddl,ddr,vr,hd,vl,hu: 32% 35% 15%  2%  3%  3%  4%  2%  4%
[libx264 @ 00000238e5a55a80] i8c dc,h,v,p: 68% 17% 11%  5%
[libx264 @ 00000238e5a55a80] Weighted P-Frames: Y:0.0% UV:0.0%
[libx264 @ 00000238e5a55a80] ref P L0: 81.3%  3.9% 11.1%  3.7%
[libx264 @ 00000238e5a55a80] ref B L0: 76.3% 21.0%  2.7%
[libx264 @ 00000238e5a55a80] ref B L1: 94.7%  5.3%
[libx264 @ 00000238e5a55a80] kb/s:34.56
[ 883s]   videos/scene_seg/driver.mp4 placed (frames 772..930)
[ 883s]   screenshots/scene_seg_executed.png placed
ffmpeg version 7.1-essentials_build-www.gyan.dev Copyright (c) 2000-2024 the FFmpeg developers
  built with gcc 14.2.0 (Rev1, Built by MSYS2 project)
  configuration: --enable-gpl --enable-version3 --enable-static --disable-w32threads --disable-autodetect --enable-fontconfig --enable-iconv --enable-gnutls --enable-libxml2 --enable-gmp --enable-bzlib --enable-lzma --enable-zlib --enable-libsrt --enable-libssh --enable-libzmq --enable-avisynth --enable-sdl2 --enable-libwebp --enable-libx264 --enable-libx265 --enable-libxvid --enable-libaom --enable-libopenjpeg --enable-libvpx --enable-mediafoundation --enable-libass --enable-libfreetype --enable-libfribidi --enable-libharfbuzz --enable-libvidstab --enable-libvmaf --enable-libzimg --enable-amf --enable-cuda-llvm --enable-cuvid --enable-dxva2 --enable-d3d11va --enable-d3d12va --enable-ffnvcodec --enable-libvpl --enable-nvdec --enable-nvenc --enable-vaapi --enable-libgme --enable-libopenmpt --enable-libopencore-amrwb --enable-libmp3lame --enable-libtheora --enable-libvo-amrwbenc --enable-libgsm --enable-libopencore-amrnb --enable-libopus --enable-libspeex --enable-libvorbis --enable-librubberband
  libavutil      59. 39.100 / 59. 39.100
  libavcodec     61. 19.100 / 61. 19.100
  libavformat    61.  7.100 / 61.  7.100
  libavdevice    61.  3.100 / 61.  3.100
  libavfilter    10.  4.100 / 10.  4.100
  libswscale      8.  3.100 /  8.  3.100
  libswresample   5.  3.100 /  5.  3.100
  libpostproc    58.  3.100 / 58.  3.100
Input #0, image2, from 'D:\a\comfy-gpu-ci\comfy-gpu-ci\comfy-test-logs\SAM3-2212\dev\windows-desktop\debug\electron_inspect\frames\frame_%06d.png':
  Duration: 00:00:27.80, start: 0.000000, bitrate: N/A
  Stream #0:0: Video: png, rgb24(pc, gbr/bt709/iec61966-2-1), 1008x681, 5 fps, 5 tbr, 5 tbn
Stream mapping:
  Stream #0:0 -> #0:0 (png (native) -> h264 (libx264))
Press [q] to stop, [?] for help
[libx264 @ 0000023ac92a5a80] using cpu capabilities: MMX2 SSE2Fast SSSE3 SSE4.2 AVX FMA3 BMI2 AVX2 AVX512
[libx264 @ 0000023ac92a5a80] profile High, level 3.1, 4:2:0, 8-bit
[libx264 @ 0000023ac92a5a80] 264 - core 164 r3192 c24e06c - H.264/MPEG-4 AVC codec - Copyleft 2003-2024 - http://www.videolan.org/x264.html - options: cabac=1 ref=3 deblock=1:0:0 analyse=0x3:0x113 me=hex subme=7 psy=1 psy_rd=1.00:0.00 mixed_ref=1 me_range=16 chroma_me=1 trellis=1 8x8dct=1 cqm=0 deadzone=21,11 fast_pskip=1 chroma_qp_offset=-2 threads=6 lookahead_threads=1 sliced_threads=0 nr=0 decimate=1 interlaced=0 bluray_compat=0 constrained_intra=0 bframes=3 b_pyramid=2 b_adapt=1 b_bias=0 direct=1 weightb=1 open_gop=0 weightp=2 keyint=250 keyint_min=5 scenecut=40 intra_refresh=0 rc_lookahead=40 rc=crf mbtree=1 crf=23.0 qcomp=0.60 qpmin=0 qpmax=69 qpstep=4 ip_ratio=1.40 aq=1:1.00
Output #0, mp4, to 'D:\a\comfy-gpu-ci\comfy-gpu-ci\comfy-test-logs\SAM3-2212\dev\windows-desktop\videos\scene_seg_interactive\driver.mp4':
  Metadata:
    encoder         : Lavf61.7.100
  Stream #0:0: Video: h264 (avc1 / 0x31637661), yuv420p(tv, unknown/bt709/iec61966-2-1, progressive), 1008x682, q=2-31, 5 fps, 10240 tbn
      Metadata:
        encoder         : Lavc61.19.100 libx264
      Side data:
        cpb: bitrate max/min/avg: 0/0/0 buffer size: 0 vbv_delay: N/A
frame=   48 fps=0.0 q=23.0 size=       0KiB time=00:00:09.20 bitrate=   0.0kbits/s speed=17.7x    
[out#0/mp4 @ 0000023ac92abbc0] video:138KiB audio:0KiB subtitle:0KiB other streams:0KiB global headers:0KiB muxing overhead: 1.782094%
frame=  139 fps=0.0 q=-1.0 Lsize=     141KiB time=00:00:27.40 bitrate=  42.1kbits/s speed=32.6x    
[libx264 @ 0000023ac92a5a80] frame I:2     Avg QP:12.10  size: 35844
[libx264 @ 0000023ac92a5a80] frame P:35    Avg QP:13.46  size:  1377
[libx264 @ 0000023ac92a5a80] frame B:102   Avg QP:20.62  size:   206
[libx264 @ 0000023ac92a5a80] consecutive B-frames:  1.4%  1.4%  2.2% 95.0%
[libx264 @ 0000023ac92a5a80] mb I  I16..4: 48.2% 27.3% 24.4%
[libx264 @ 0000023ac92a5a80] mb P  I16..4:  0.5%  0.1%  0.5%  P16..4:  0.9%  0.1%  0.1%  0.0%  0.0%    skip:97.7%
[libx264 @ 0000023ac92a5a80] mb B  I16..4:  0.1%  0.0%  0.0%  B16..8:  6.9%  0.1%  0.0%  direct: 0.0%  skip:92.9%  L0:71.1% L1:28.8% BI: 0.1%
[libx264 @ 0000023ac92a5a80] 8x8 transform intra:24.5% inter:69.0%
[libx264 @ 0000023ac92a5a80] coded y,uvDC,uvAC intra: 29.5% 21.9% 18.2% inter: 0.1% 0.2% 0.1%
[libx264 @ 0000023ac92a5a80] i16 v,h,dc,p: 52% 42%  1%  6%
[libx264 @ 0000023ac92a5a80] i8 v,h,dc,ddl,ddr,vr,hd,vl,hu: 50% 17% 28%  0%  2%  1%  1%  0%  1%
[libx264 @ 0000023ac92a5a80] i4 v,h,dc,ddl,ddr,vr,hd,vl,hu: 35% 35% 13%  2%  3%  3%  3%  2%  3%
[libx264 @ 0000023ac92a5a80] i8c dc,h,v,p: 69% 17%  9%  5%
[libx264 @ 0000023ac92a5a80] Weighted P-Frames: Y:0.0% UV:0.0%
[libx264 @ 0000023ac92a5a80] ref P L0: 81.2%  1.1% 10.8%  7.0%
[libx264 @ 0000023ac92a5a80] ref B L0: 30.6% 69.1%  0.3%
[libx264 @ 0000023ac92a5a80] ref B L1: 99.6%  0.4%
[libx264 @ 0000023ac92a5a80] kb/s:40.54
[ 884s]   videos/scene_seg_interactive/driver.mp4 placed (frames 982..1120)
[ 884s]   screenshots/scene_seg_interactive_executed.png placed
[ 884s]   removed D:\a\comfy-gpu-ci\comfy-gpu-ci\comfy-test-logs\SAM3-2212\dev\windows-desktop\debug\electron_inspect\frames after successful encode
